<svg xmlns="http://www.w3.org/2000/svg" width="1200" height="560" viewBox="0 0 1200 560" role="img" aria-labelledby="title desc">
  <title id="title">Pi Everforest palette preview</title>
  <desc id="desc">Side-by-side previews of the Everforest dark medium and light medium themes for pi.</desc>
  <defs>
    <filter id="shadow" x="-10%" y="-10%" width="120%" height="130%">
      <feDropShadow dx="0" dy="12" stdDeviation="16" flood-color="#1E2326" flood-opacity="0.28"/>
    </filter>
  </defs>

  <rect width="1200" height="560" rx="28" fill="#E6E2CC"/>

  <g transform="translate(54 54)" filter="url(#shadow)">
    <rect width="522" height="452" rx="18" fill="#2D353B"/>
    <path d="M18 0h486a18 18 0 0 1 18 18v42H0V18A18 18 0 0 1 18 0Z" fill="#343F44"/>
    <circle cx="28" cy="30" r="7" fill="#E67E80"/>
    <circle cx="52" cy="30" r="7" fill="#DBBC7F"/>
    <circle cx="76" cy="30" r="7" fill="#A7C080"/>
    <text x="261" y="36" text-anchor="middle" font-family="ui-monospace, SFMono-Regular, Menlo, monospace" font-size="15" font-weight="600" fill="#9DA9A0">everforest-dark-medium</text>

    <text x="30" y="105" font-family="ui-monospace, SFMono-Regular, Menlo, monospace" font-size="18" font-weight="700" fill="#E69875">Pi Everforest</text>
    <text x="30" y="137" font-family="ui-monospace, SFMono-Regular, Menlo, monospace" font-size="15" fill="#D3C6AA">Warm, green-based colors for focused coding.</text>

    <rect x="24" y="168" width="474" height="88" rx="10" fill="#343F44"/>
    <text x="42" y="198" font-family="ui-monospace, SFMono-Regular, Menlo, monospace" font-size="13" font-weight="700" fill="#83C092">YOU</text>
    <text x="42" y="227" font-family="ui-monospace, SFMono-Regular, Menlo, monospace" font-size="15" fill="#D3C6AA">Add a calm color scheme to pi.</text>

    <text x="30" y="294" font-family="ui-monospace, SFMono-Regular, Menlo, monospace" font-size="13" font-weight="700" fill="#E69875">READ</text>
    <text x="82" y="294" font-family="ui-monospace, SFMono-Regular, Menlo, monospace" font-size="14" fill="#859289">themes/everforest-dark-medium.json</text>
    <rect x="24" y="314" width="474" height="66" rx="10" fill="#425047"/>
    <text x="42" y="354" font-family="ui-monospace, SFMono-Regular, Menlo, monospace" font-size="15" fill="#A7C080">✓ Theme loaded successfully</text>

    <g transform="translate(30 407)">
      <rect width="46" height="18" rx="9" fill="#E67E80"/>
      <rect x="56" width="46" height="18" rx="9" fill="#E69875"/>
      <rect x="112" width="46" height="18" rx="9" fill="#DBBC7F"/>
      <rect x="168" width="46" height="18" rx="9" fill="#A7C080"/>
      <rect x="224" width="46" height="18" rx="9" fill="#83C092"/>
      <rect x="280" width="46" height="18" rx="9" fill="#7FBBB3"/>
      <rect x="336" width="46" height="18" rx="9" fill="#D699B6"/>
    </g>
  </g>

  <g transform="translate(624 54)" filter="url(#shadow)">
    <rect width="522" height="452" rx="18" fill="#FDF6E3"/>
    <path d="M18 0h486a18 18 0 0 1 18 18v42H0V18A18 18 0 0 1 18 0Z" fill="#F4F0D9"/>
    <circle cx="28" cy="30" r="7" fill="#F85552"/>
    <circle cx="52" cy="30" r="7" fill="#DFA000"/>
    <circle cx="76" cy="30" r="7" fill="#8DA101"/>
    <text x="261" y="36" text-anchor="middle" font-family="ui-monospace, SFMono-Regular, Menlo, monospace" font-size="15" font-weight="600" fill="#829181">everforest-light-medium</text>

    <text x="30" y="105" font-family="ui-monospace, SFMono-Regular, Menlo, monospace" font-size="18" font-weight="700" fill="#F57D26">Pi Everforest</text>
    <text x="30" y="137" font-family="ui-monospace, SFMono-Regular, Menlo, monospace" font-size="15" fill="#5C6A72">Warm, green-based colors for focused coding.</text>

    <rect x="24" y="168" width="474" height="88" rx="10" fill="#F4F0D9"/>
    <text x="42" y="198" font-family="ui-monospace, SFMono-Regular, Menlo, monospace" font-size="13" font-weight="700" fill="#35A77C">YOU</text>
    <text x="42" y="227" font-family="ui-monospace, SFMono-Regular, Menlo, monospace" font-size="15" fill="#5C6A72">Add a calm color scheme to pi.</text>

    <text x="30" y="294" font-family="ui-monospace, SFMono-Regular, Menlo, monospace" font-size="13" font-weight="700" fill="#F57D26">READ</text>
    <text x="82" y="294" font-family="ui-monospace, SFMono-Regular, Menlo, monospace" font-size="14" fill="#939F91">themes/everforest-light-medium.json</text>
    <rect x="24" y="314" width="474" height="66" rx="10" fill="#F0F1D2"/>
    <text x="42" y="354" font-family="ui-monospace, SFMono-Regular, Menlo, monospace" font-size="15" fill="#8DA101">✓ Theme loaded successfully</text>

    <g transform="translate(30 407)">
      <rect width="46" height="18" rx="9" fill="#F85552"/>
      <rect x="56" width="46" height="18" rx="9" fill="#F57D26"/>
      <rect x="112" width="46" height="18" rx="9" fill="#DFA000"/>
      <rect x="168" width="46" height="18" rx="9" fill="#8DA101"/>
      <rect x="224" width="46" height="18" rx="9" fill="#35A77C"/>
      <rect x="280" width="46" height="18" rx="9" fill="#3A94C5"/>
      <rect x="336" width="46" height="18" rx="9" fill="#DF69BA"/>
    </g>
  </g>
</svg>
